<svg xmlns="http://www.w3.org/2000/svg" viewBox="0 0 45 51.82"><defs><style>.cls-1{fill:#fff;}</style></defs><g id="Camada_2" data-name="Camada 2"><g id="Camada_1-2" data-name="Camada 1"><path class="cls-1" d="M32.93,51.82a1.21,1.21,0,0,1-.5-1.09c0-3.61,0-7.22,0-10.82a1,1,0,0,1,.1-.59,1.17,1.17,0,0,1,.7-.44,1.13,1.13,0,0,1,.68.46A1.28,1.28,0,0,1,34,40c0,3.2,0,6.4,0,9.61v.63h4.28V31.52c0-.9.17-1.09,1.18-1.18l-3.33-3.55-3.32,3.54.37,0a.81.81,0,0,1,.82.86c0,1.75,0,3.5,0,5.26a.78.78,0,1,1-1.56,0c0-1.28,0-2.56,0-3.85v-.68H31.17a.87.87,0,0,1-.91-.5.83.83,0,0,1,.28-1c1.63-1.73,3.26-3.47,4.89-5.19.52-.56.89-.56,1.41,0,1.62,1.72,3.23,3.45,4.85,5.16a.9.9,0,0,1,.31,1c-.18.42-.57.47-1,.46H39.81v.65q0,9,0,18.06a1.44,1.44,0,0,1-.42,1.17Z"/><path class="cls-1" d="M19.46,51.82A1.22,1.22,0,0,1,19,50.73q0-6.65,0-13.31v-.66H17.63a.77.77,0,0,1-.82-.46.76.76,0,0,1,.22-.91l5-5.31a.79.79,0,0,1,1.31,0c1.67,1.77,3.34,3.53,5,5.32a1.3,1.3,0,0,1,.22.91c-.07.37-.43.47-.8.46H26.35v.63q0,6.63,0,13.26a1.44,1.44,0,0,1-.42,1.17Zm3.22-20.18-3.32,3.53c1.05.15,1.19.31,1.19,1.33V50.26h4.28V36.11a.78.78,0,0,1,.81-.89,3.15,3.15,0,0,0,.37,0Z"/><path class="cls-1" d="M6,51.82a1.2,1.2,0,0,1-.49-1.09c0-.91,0-1.82,0-2.73,0-.63.29-1,.79-1s.77.34.78,1,0,1.47,0,2.25h4.28V41.75c0-1.09.07-1.18,1.18-1.33L9.22,36.87,5.89,40.41c1.11.18,1.2.29,1.2,1.39v2.73c0,.61-.3,1-.77,1s-.8-.38-.8-1c0-.83,0-1.65,0-2.52a9.23,9.23,0,0,1-1.4,0,1.37,1.37,0,0,1-.76-.46c-.22-.29-.06-.61.17-.86,1.69-1.79,3.37-3.59,5.07-5.38a.77.77,0,0,1,1.26,0c1.67,1.76,3.33,3.54,5,5.3a.82.82,0,0,1,.21,1,.8.8,0,0,1-.85.43H12.89v.56c0,2.69,0,5.39,0,8.09a1.44,1.44,0,0,1-.42,1.17Z"/><path class="cls-1" d="M22.69,27.69A13.85,13.85,0,1,1,36.54,13.81,13.88,13.88,0,0,1,22.69,27.69ZM35,13.83A12.31,12.31,0,1,0,22.71,26.12,12.33,12.33,0,0,0,35,13.83Z"/><path class="cls-1" d="M3,13.35H5.14a.76.76,0,1,1,0,1.52q-2.14,0-4.29,0A.76.76,0,0,1,0,14.13c0-.47.3-.77.84-.78Z"/><path class="cls-1" d="M42,13.35h2.17c.53,0,.83.29.84.74a.76.76,0,0,1-.85.78c-1.42,0-2.83,0-4.25,0-.54,0-.88-.29-.89-.74s.34-.78.91-.78Z"/><path class="cls-1" d="M6.56,19.9c.24.24.52.42.63.67a.63.63,0,0,1-.32.86,14.91,14.91,0,0,1-1.82.71.61.61,0,0,1-.82-.4c-.07-.27,0-.76.14-.85A22.64,22.64,0,0,1,6.56,19.9Z"/><path class="cls-1" d="M37.75,20.92c.06-.71.53-1,1-.85s1.07.4,1.59.63a.74.74,0,0,1,.42,1,.75.75,0,0,1-1,.41,9,9,0,0,1-1.54-.62C38,21.36,37.85,21,37.75,20.92Z"/><path class="cls-1" d="M5.1,6.05c.53.22,1.22.47,1.87.81a.66.66,0,0,1,.19.91.7.7,0,0,1-.88.4,17.31,17.31,0,0,1-1.73-.69.69.69,0,0,1-.38-.89C4.28,6.22,4.54,6.06,5.1,6.05Z"/><path class="cls-1" d="M40.88,7a2,2,0,0,1-.53.54,12,12,0,0,1-1.54.61.77.77,0,1,1-.56-1.43c.51-.22,1-.43,1.54-.6S40.87,6.26,40.88,7Z"/><path class="cls-1" d="M22.68,3.83a10,10,0,1,1-9.91,11.44,9.91,9.91,0,0,1,1-6c.29-.56.69-.76,1.12-.56s.55.66.26,1.26A8.46,8.46,0,1,0,22.2,5.37a8.28,8.28,0,0,0-5,2L17,7.55a.76.76,0,0,1-1.09,0A.78.78,0,0,1,16,6.37a8.68,8.68,0,0,1,3.42-2c1-.31,2.15-.47,3.23-.69Z"/><path class="cls-1" d="M21.71,9.13c0-.29,0-.59,0-.89a.8.8,0,0,1,.76-.85.74.74,0,0,1,.79.8,1.19,1.19,0,0,0,.86,1.38,2.85,2.85,0,0,1,1,1,.74.74,0,0,1-.23,1.06.76.76,0,0,1-1.09-.28,1.47,1.47,0,0,0-1.8-.62,1.19,1.19,0,0,0-.76,1.15,1,1,0,0,0,.73,1c.4.13.82.18,1.23.27a2.83,2.83,0,0,1,2.45,2.11,2.88,2.88,0,0,1-1.06,3.07,1.86,1.86,0,0,1-.71.37c-.51.1-.59.4-.58.86a1.22,1.22,0,0,1-.25.82.82.82,0,0,1-.76.17c-.23-.1-.54-.46-.51-.65.13-.84-.29-1.15-1-1.41A2.52,2.52,0,0,1,19.38,17,.77.77,0,0,1,19.75,16a.73.73,0,0,1,1,.43,2,2,0,0,0,2.69.82,1.34,1.34,0,0,0,.67-1.27,1.07,1.07,0,0,0-.71-1.06,5.62,5.62,0,0,0-1.07-.28c-1.59-.29-2.54-1.1-2.68-2.32A2.91,2.91,0,0,1,21.71,9.13Z"/></g></g></svg>