<svg xmlns="http://www.w3.org/2000/svg" viewBox="0 0 78 44.75"><defs><style>.cls-1{fill:#fff;}</style></defs><g id="Camada_2" data-name="Camada 2"><g id="Camada_1-2" data-name="Camada 1"><path class="cls-1" d="M65,0H13A13.13,13.13,0,0,0,0,13.26V31.49A13.13,13.13,0,0,0,13,44.75H65A13.13,13.13,0,0,0,78,31.49V13.26A13.13,13.13,0,0,0,65,0ZM20.3,30a.53.53,0,0,1,0,.72l-1.58,1.61a.5.5,0,0,1-.73,0L9.43,23.56a.5.5,0,0,1,0-.71L18,14.12a.5.5,0,0,1,.73,0l1.58,1.61a.53.53,0,0,1,0,.72l-6.63,6.76Zm22-5.61a.51.51,0,0,1-.51.51H34.13v7.78a.51.51,0,0,1-.52.51H31.39a.51.51,0,0,1-.52-.51V24.86H23.26a.51.51,0,0,1-.51-.51V22.06a.51.51,0,0,1,.51-.51h7.61V13.77a.51.51,0,0,1,.52-.51h2.22a.51.51,0,0,1,.52.51v7.78h7.61a.51.51,0,0,1,.51.51ZM55,9.24,47.2,36.44a.52.52,0,0,1-.64.35l-2.13-.65a.51.51,0,0,1-.35-.63L51.92,8.32A.51.51,0,0,1,52.56,8l2.14.64A.5.5,0,0,1,55,9.24ZM68.57,23.56,60,32.29a.5.5,0,0,1-.73,0L57.7,30.68a.53.53,0,0,1,0-.72l6.63-6.75L57.7,16.45a.53.53,0,0,1,0-.72l1.58-1.61a.5.5,0,0,1,.73,0l8.56,8.73A.5.5,0,0,1,68.57,23.56Z"/></g></g></svg>