<svg xmlns="http://www.w3.org/2000/svg" viewBox="0 0 45 49.27"><defs><style>.cls-1{fill:#fff;}</style></defs><g id="Camada_2" data-name="Camada 2"><g id="Camada_1-2" data-name="Camada 1"><path class="cls-1" d="M34.86,1.44h-.68c-7.45,0-14.9,0-22.36,0a1.19,1.19,0,0,0-1,.47q-4.08,4.72-8.2,9.44l-.26.31h9.06c0-.18,0-.37,0-.56V4.91c0-.14,0-.28,0-.43,0-.5.28-.79.71-.76s.69.33.7.79c0,.61,0,1.23,0,1.84,0,1.93,0,3.86,0,5.79,0,.75-.25,1-1,1H1.48V47.8H34.86V34a2.68,2.68,0,0,1,0-.49.67.67,0,0,1,.72-.6.64.64,0,0,1,.67.64,3.09,3.09,0,0,1,0,.43V48.21c0,.91-.16,1.06-1.08,1.06L1,49.23c-.74,0-1-.23-1-1V28.87q0-8,0-16a1.68,1.68,0,0,1,.43-1.17Q5.32,6.09,10.17.48a1.24,1.24,0,0,1,1-.48h24.1c.77,0,1,.2,1,1q0,8.68,0,17.38a1.17,1.17,0,0,1-.36.82.67.67,0,0,1-1-.5,4.87,4.87,0,0,1,0-.54V1.44Z"/><path class="cls-1" d="M42,16.21a3.19,3.19,0,0,1,2.78,2.05,2.64,2.64,0,0,1-.67,3.12L26.63,38.77a2,2,0,0,1-.86.37c-1,.13-2,.21-3.07.32-.76.08-1.11-.28-1-1.05.11-1,.17-1.94.32-2.9a2,2,0,0,1,.5-1.08q8.63-8.64,17.28-17.25A3,3,0,0,1,42,16.21ZM37.9,21.1l-.13.1L23.67,35.25a.89.89,0,0,0-.26.4c-.09.76-.23,2.32-.23,2.32l2.63-.36c3.14-3.16,6.86-6.85,10-10l4.3-4.3Zm3.32,1.14c.67-.68,1.35-1.33,2-2a1.4,1.4,0,0,0-.15-2c-.61-.66-1.41-.83-2-.33-.73.69-1.4,1.44-2.07,2.15Z"/><path class="cls-1" d="M22.39,17h8.12c.81,0,1,.22,1,1v4c0,.77-.25,1-1,1H14.15c-.79,0-1-.25-1-1,0-1.32,0-2.64,0-4,0-.78.25-1,1-1Zm7.7,1.47H14.61v3H30.09Z"/><path class="cls-1" d="M30.11,41.1v-3c0-.24,0-.47,0-.7,0-.51.32-.86.74-.82a.7.7,0,0,1,.69.8c0,1.24,0,2.49,0,3.73,0,.24,0,.47,0,.71a.73.73,0,0,1-.75.76H14.35c-1,0-1.23-.18-1.23-1.23,0-1.26,0-2.52,0-3.78,0-.77.25-1,1-1h5.25c.43,0,.79.19.81.61a1.24,1.24,0,0,1-.4.74c-.11.1-.38.07-.58.07H14.6V41.1Z"/><path class="cls-1" d="M14.6,28.21v3.15h7c.58,0,.91.25.93.68s-.34.73-.93.73H14c-.66,0-.91-.26-.92-.92q0-2.09,0-4.17c0-.64.26-.88.89-.88H26c.57,0,.89.27.87.72s-.35.69-.92.69H14.6Z"/><path class="cls-1" d="M8,17h2.21c.6,0,.87.27.87.86q0,2.16,0,4.32a.72.72,0,0,1-.78.83c-1.57,0-3.14,0-4.7,0a.72.72,0,0,1-.79-.83q0-2.16,0-4.32c0-.58.27-.85.86-.86ZM6.2,18.43v3.06H9.6V18.43Z"/><path class="cls-1" d="M7.9,36.57h2.27c.59,0,.86.27.86.86q0,2.16,0,4.32c0,.54-.24.82-.78.83-1.57,0-3.14,0-4.7,0a.72.72,0,0,1-.79-.83q0-2.16,0-4.32c0-.59.27-.85.87-.86Zm1.68,4.55V38H6.21v3.09Z"/><path class="cls-1" d="M7.94,26.8c.76,0,1.52,0,2.27,0,.58,0,.82.25.82.83,0,1.43,0,2.85,0,4.28,0,.6-.25.85-.85.86H5.63c-.61,0-.87-.26-.87-.84,0-1.43,0-2.86,0-4.28,0-.61.24-.84.85-.85C6.39,26.79,7.17,26.8,7.94,26.8ZM6.2,28.24v3.08H9.6V28.24Z"/></g></g></svg>