<svg xmlns="http://www.w3.org/2000/svg" viewBox="0 0 90 90"><g id="Camada_2" data-name="Camada 2"><g id="Camada_1-2" data-name="Camada 1"><path d="M90,88.39A2.73,2.73,0,0,1,87.17,90c-4.3-.07-8.61,0-12.91,0a1.32,1.32,0,1,1,0-2.63c.2,0,.41,0,.61,0H87.3V85.46H2.71v1.88H67.42a3,3,0,0,1,1,.08,1.22,1.22,0,0,1,.84,1.38A1.23,1.23,0,0,1,68.18,90a5.21,5.21,0,0,1-.79,0Q35.1,90,2.81,90C1,90-.17,89,0,87.17a19.43,19.43,0,0,0,0-2,2.19,2.19,0,0,1,2.41-2.38h.93V61.36c0-1.78.71-2.48,2.51-2.48h6.73V46.4A52.17,52.17,0,0,1,6.73,43,17.46,17.46,0,0,1,3.47,18.73c.65-.86,1.42-1.09,2.08-.63s.76,1.26.08,2.22a14.81,14.81,0,0,0,1.06,19,14.43,14.43,0,0,0,6,3.86c.86-2.61,3.13-1.44,4.91-1.81V33.48a4.48,4.48,0,0,1-2.77-3,4.32,4.32,0,0,1,8.07-3A4.18,4.18,0,0,1,21.22,33a1.68,1.68,0,0,0-1,1.79c0,2.19,0,4.38,0,6.64H29.5V35.83a.8.8,0,0,0-.3-.09c-1.7.17-2.79-.94-2.64-2.78.06-.66,0-1.34,0-2A2.2,2.2,0,0,1,29,28.51c2.32,0,4.63,0,7,0,.19,0,.38,0,.74-.06-.26-.33-.42-.56-.61-.76-.38-.4-.8-.77-1.17-1.18-.93-1-1.76-1.77-3.49-1.43A4,4,0,0,1,26.88,21a4.32,4.32,0,1,1,8.63.07.81.81,0,0,1,0,.35c-.7,1.26,0,2,.91,2.77.34.28.62.63.94.93a5.43,5.43,0,0,1,2.07,3.35h4.2c0-.29,0-.56,0-.84,0-3.28,0-6.56,0-9.84A1.07,1.07,0,0,0,43,16.64,4.23,4.23,0,0,1,40.9,11.5a4.33,4.33,0,0,1,8.44,1.2,4.29,4.29,0,0,1-2.37,4,1.25,1.25,0,0,0-.57.8c0,3.52,0,7,0,10.55a2.49,2.49,0,0,0,.06.39h4.17c.27-2.15,2-3.23,3.4-4.61a1.94,1.94,0,0,0,.63-2.17,4.25,4.25,0,0,1,3.5-5.1,4.36,4.36,0,0,1,5,3.63,4.26,4.26,0,0,1-3.83,4.93,3,3,0,0,1-1.47-.1c-.78-.38-1.22-.08-1.72.46-.66.74-1.4,1.42-2.1,2.13-.21.21-.39.46-.75.88h7.67A2.24,2.24,0,0,1,63.46,31v2.19c0,1.67-.72,2.42-2.36,2.51l-.58,0v5.65h9.23V38.73c0-1.41,0-2.82,0-4.22a1.31,1.31,0,0,0-.8-1.42A4.24,4.24,0,0,1,67,27.8a4.33,4.33,0,1,1,5.43,5.68v8h2.17c1.88,0,2.54.56,2.82,2.59a27.67,27.67,0,0,0,3-.89,11.32,11.32,0,0,0-2.48-21.58c-.69-.12-1.39-.12-2.09-.18-.92-.07-1.51-.64-1.47-1.41a1.37,1.37,0,0,1,1.49-1.29c.53,0,1,.05,1.74.09-.24-.7-.43-1.32-.68-1.92A14.94,14.94,0,0,0,57,9.37c-1.57.73-1.71.7-2.88-.65-8.14-9.42-23.79-7.5-29.42,3.6-.09.18-.16.37-.27.61.64.33,1.26.63,1.87,1a1.38,1.38,0,0,1,.73,2,1.35,1.35,0,0,1-2,.4,15.05,15.05,0,0,0-14.45-.2,2.79,2.79,0,0,1-1,.41,1.23,1.23,0,0,1-1.34-.92,1.31,1.31,0,0,1,.71-1.62,17.68,17.68,0,0,1,6.18-2.13,17.26,17.26,0,0,1,6.57.29c.88-1.37,1.65-2.79,2.63-4A20.21,20.21,0,0,1,38,.16,1.29,1.29,0,0,0,38.34,0h4.39c.16.05.33.12.49.16,1.67.42,3.38.71,5,1.29A19.25,19.25,0,0,1,56,6.8h.14l.65-.26a16.66,16.66,0,0,1,9.3-1C73.52,7,78.33,11.39,80.35,18.76a1.35,1.35,0,0,0,.92,1,13.73,13.73,0,0,1,7.85,8.15c.39,1,.59,2.13.88,3.19v3.34a4.69,4.69,0,0,0-.17.58A13.81,13.81,0,0,1,79.89,46.2c-.8.26-1.64.38-2.46.56V58.88h6.75c1.77,0,2.47.71,2.47,2.5q0,10.2,0,20.38v1c1.51-.19,2.71.12,3.34,1.56ZM60.46,82.71H74.67V44.17H60.46v1c0,1,0,1.93,0,2.9a1.35,1.35,0,0,1-1.31,1.38,1.32,1.32,0,0,1-1.36-1.31,8.62,8.62,0,0,1,0-.88V35.8H32.33V82.7h3c0-3.83,0-7.61,0-11.38,0-1.34.46-1.83,1.77-1.84q7.86,0,15.72,0c1.32,0,1.78.49,1.78,1.83,0,3.49,0,7,0,10.45v.95h3.11V55.26c0-.32,0-.65,0-1a1.37,1.37,0,0,1,1.33-1.36,1.41,1.41,0,0,1,1.34,1.36c0,.27,0,.53,0,.79V82.71ZM15.32,44.16v1.1q0,12.12,0,24.24c0,1.06-.52,1.69-1.36,1.66s-1.27-.62-1.27-1.66c0-1.64,0-3.28,0-4.92v-3H6.09V82.72h6.58v-.91c0-1.9,0-3.81,0-5.71a1.32,1.32,0,1,1,2.63,0c0,1.14,0,2.29,0,3.43v3.21h14.2V44.16Zm62.1,17.43V82.7h6.51V61.59ZM29.28,33H60.73V31.31H29.28ZM46.45,79v3.76h5.44V72.25H46.45v3.93c2,.2,2.44.45,2.43,1.4S48.45,78.75,46.45,79Zm-2.87,3.77V78.92c-1-.07-2.28.22-2.4-1.19C41,76,42.56,76.33,43.6,76.2v-4H38.15V82.73ZM32.84,20.85a1.72,1.72,0,0,0-1.62-1.65,1.68,1.68,0,0,0-1.68,1.67,1.65,1.65,0,0,0,1.61,1.63A1.67,1.67,0,0,0,32.84,20.85Zm13.79-8a1.62,1.62,0,1,0-3.23,0,1.62,1.62,0,0,0,3.23,0ZM58.89,22.5a1.65,1.65,0,0,0,1.6-1.64A1.68,1.68,0,0,0,58.8,19.2a1.71,1.71,0,0,0-1.61,1.66A1.67,1.67,0,0,0,58.89,22.5ZM71.12,31a1.64,1.64,0,0,0,1.61-1.62A1.62,1.62,0,0,0,71,27.74a1.6,1.6,0,0,0-1.6,1.61A1.63,1.63,0,0,0,71.12,31ZM19,27.74a1.62,1.62,0,1,0,1.64,1.67A1.62,1.62,0,0,0,19,27.74Z"/><path d="M44.11,63.27c0,.93,0,1.87,0,2.8a1.39,1.39,0,0,1-1.46,1.52q-2.9.06-5.79,0A1.4,1.4,0,0,1,35.38,66q0-2.76,0-5.52c0-1.09.54-1.59,1.64-1.6q2.71,0,5.43,0c1.14,0,1.64.52,1.66,1.67C44.12,61.45,44.11,62.36,44.11,63.27Zm-2.77,1.57V61.6H38.17v3.24Z"/><path d="M50.32,58.88c.9,0,1.81,0,2.71,0a1.43,1.43,0,0,1,1.62,1.62c0,1.81,0,3.63,0,5.44,0,1.1-.51,1.64-1.59,1.66-1.84,0-3.68,0-5.52,0A1.45,1.45,0,0,1,45.92,66q0-2.71,0-5.43c0-1.14.53-1.64,1.68-1.65C48.5,58.87,49.41,58.88,50.32,58.88ZM48.7,61.6v3.22h3.19V61.6Z"/><path d="M39.74,46.37c-.91,0-1.81,0-2.72,0-1.09,0-1.63-.53-1.64-1.6,0-1.84,0-3.69,0-5.53,0-1.07.54-1.58,1.65-1.59q2.72,0,5.43,0c1.14,0,1.64.53,1.65,1.69q0,2.67,0,5.34c0,1.18-.53,1.68-1.74,1.69C41.49,46.38,40.62,46.37,39.74,46.37Zm1.6-5.92h-3.2v3.17h3.2Z"/><path d="M54.65,42.09c0,.9,0,1.81,0,2.71a1.43,1.43,0,0,1-1.59,1.57c-1.85,0-3.69,0-5.53,0a1.44,1.44,0,0,1-1.61-1.63c0-1.82,0-3.63,0-5.44,0-1.14.53-1.65,1.68-1.65,1.78,0,3.57,0,5.35,0,1.2,0,1.69.51,1.7,1.72C54.66,40.27,54.65,41.18,54.65,42.09Zm-2.78,1.54v-3.2H48.69v3.2Z"/><path d="M39.7,57c-.93,0-1.87,0-2.8,0s-1.5-.48-1.51-1.42c0-1.93,0-3.86,0-5.79A1.31,1.31,0,0,1,36.8,48.3q2.94,0,5.88,0a1.3,1.3,0,0,1,1.42,1.43c0,1.92,0,3.85,0,5.78a1.33,1.33,0,0,1-1.51,1.43C41.63,57,40.67,56.94,39.7,57ZM41.35,51H38.14v3.22h3.21Z"/><path d="M50.21,56.94c-.93,0-1.87,0-2.8,0s-1.46-.47-1.48-1.37c0-2,0-3.91,0-5.87a1.3,1.3,0,0,1,1.45-1.4c1.93,0,3.85,0,5.78,0a1.32,1.32,0,0,1,1.48,1.46c0,1.9,0,3.8,0,5.69a1.35,1.35,0,0,1-1.55,1.49C52.14,57,51.18,57,50.21,56.94Zm-1.53-2.69h3.2V51h-3.2Z"/><path d="M71.72,63.29c0,.93,0,1.87,0,2.8a1.33,1.33,0,0,1-1.37,1.49c-2,0-4,0-5.95,0a1.28,1.28,0,0,1-1.35-1.42c0-2,0-3.92,0-5.87a1.3,1.3,0,0,1,1.45-1.4c1.93,0,3.86,0,5.79,0a1.34,1.34,0,0,1,1.43,1.5C71.73,61.36,71.72,62.32,71.72,63.29Zm-6,1.53H69V61.6H65.77Z"/><path d="M71.72,73.9c0,.93,0,1.87,0,2.8a1.34,1.34,0,0,1-1.45,1.49c-1.93,0-3.86,0-5.78,0a1.31,1.31,0,0,1-1.44-1.42c0-2,0-3.91,0-5.87a1.28,1.28,0,0,1,1.45-1.4c1.93,0,3.86,0,5.78,0A1.34,1.34,0,0,1,71.72,71C71.73,72,71.72,72.93,71.72,73.9Zm-5.94-1.66v3.24H69V72.24Z"/><path d="M67.34,56.94c-.94,0-1.88,0-2.81,0s-1.46-.43-1.48-1.36q0-3,0-6A1.23,1.23,0,0,1,64.4,48.3c2,0,4,0,6,0a1.25,1.25,0,0,1,1.34,1.39c0,1.94,0,3.87,0,5.8a1.3,1.3,0,0,1-1.49,1.44C69.27,57,68.3,56.94,67.34,56.94ZM65.8,51v3.27H69V51Z"/><path d="M18.31,63.17c0-.93,0-1.87,0-2.8a1.33,1.33,0,0,1,1.45-1.48q2.89,0,5.79,0A1.28,1.28,0,0,1,27,60.22q.06,3,0,6a1.3,1.3,0,0,1-1.45,1.41c-1.93,0-3.86,0-5.78,0a1.34,1.34,0,0,1-1.43-1.52C18.3,65.1,18.31,64.14,18.31,63.17Zm6-1.55H21v3.19h3.26Z"/><path d="M18.31,73.8c0-.93,0-1.86,0-2.8s.45-1.47,1.35-1.49q3-.08,6,0A1.27,1.27,0,0,1,27,70.91c0,2,0,3.91,0,5.87,0,1-.55,1.4-1.53,1.41q-2.81,0-5.61,0c-1.05,0-1.52-.51-1.53-1.58S18.31,74.74,18.31,73.8Zm5.91,1.71V72.26H21v3.25Z"/><path d="M22.57,56.94c-.94,0-1.88,0-2.81,0a1.29,1.29,0,0,1-1.45-1.39c0-2,0-3.92,0-5.88a1.25,1.25,0,0,1,1.37-1.37q2.94,0,5.88,0A1.24,1.24,0,0,1,27,49.65c0,2,0,4,0,6,0,.88-.53,1.3-1.42,1.32S23.56,56.94,22.57,56.94ZM21,51v3.24h3.22V51Z"/></g></g></svg>