<svg xmlns="http://www.w3.org/2000/svg" viewBox="0 0 45 45"><defs><style>.cls-1{fill:#fff;}</style></defs><g id="Camada_2" data-name="Camada 2"><g id="Camada_1-2" data-name="Camada 1"><path class="cls-1" d="M12.75,43.46V45l-.2,0C10,45,7.52,45,5,45A5.08,5.08,0,0,1,.08,40.34a24.52,24.52,0,0,1,.08-4.77,6.61,6.61,0,0,1,5.61-5.5A10.09,10.09,0,0,1,7.12,30c2.18,0,4.36.05,6.55.07a.49.49,0,0,0,.32-.19A6.77,6.77,0,0,1,19.91,27c1.83,0,3.66,0,5.48,0A6.62,6.62,0,0,1,31,29.8a.51.51,0,0,0,.58.24,5.06,5.06,0,0,1,.79-.06h5.85A6.75,6.75,0,0,1,45,36.82v3A5.18,5.18,0,0,1,40,45c-2.51.06-5,0-7.54,0l-.2,0V43.47H39V35.25h1.49v8.14a3.67,3.67,0,0,0,2.72-2.25,2.38,2.38,0,0,0,.24-.94,28.34,28.34,0,0,0-.1-4.52,5,5,0,0,0-4.91-4.16c-2.06-.08-4.12,0-6.18,0a1.59,1.59,0,0,0-.26,0c.53,3.2.18,6.41.26,9.61A3.66,3.66,0,0,1,28.6,45c-.76,0-1.52,0-2.31,0V33h1.46V43.41a2.34,2.34,0,0,0,3-2.42c0-2.39,0-4.78,0-7.17a5.25,5.25,0,0,0-4.2-5.2,4,4,0,0,0-.84-.1c-2.2,0-4.4-.08-6.6,0a5.08,5.08,0,0,0-4.83,5c-.07,2.56,0,5.12,0,7.68a2.22,2.22,0,0,0,2.27,2.2h.7V33h1.48V45c-1.75,0-3.59.36-5-1.21a3.66,3.66,0,0,1-1-2.47c0-2.54,0-5.09,0-7.63A17.78,17.78,0,0,1,13,31.55a1.3,1.3,0,0,0-.21,0c-2.21,0-4.43-.05-6.64.07a4.93,4.93,0,0,0-4.53,4.18,24.29,24.29,0,0,0,0,4.67,3.46,3.46,0,0,0,2.88,2.93v-8.1H6v8.2Z"/><path class="cls-1" d="M19.52,6.33A14.33,14.33,0,0,0,15,8.17c-.25.16-.36,0-.51-.14L12.09,5.62c-.54-.55-.87-.54-1.42,0L7.85,8.44c-.5.51-.5.87,0,1.39l2.64,2.63c-.48,1-1,2-1.39,3.06a9.18,9.18,0,0,0-.42,1.38c-.06.29-.19.37-.47.36-1.13,0-2.25,0-3.37,0-.83,0-1.07.24-1.07,1.06V22.2c0,.68.1.82.73,1.09v1.39a2.08,2.08,0,0,1-2.22-2q0-2.46,0-4.92A2.23,2.23,0,0,1,4.5,15.75H7.36l1.26-3L6.74,10.85a2.25,2.25,0,0,1,0-3.46L9.66,4.48a2.3,2.3,0,0,1,3.45,0c.56.55,1.11,1.1,1.65,1.66a.44.44,0,0,0,.6.12c.77-.36,1.56-.68,2.36-1,.23-.09.31-.19.3-.43,0-.86,0-1.72,0-2.58A2.23,2.23,0,0,1,20.24,0h4.55A2.23,2.23,0,0,1,27,2.25q0,1.29,0,2.58c0,.24.07.34.3.43.81.32,1.62.65,2.41,1a.39.39,0,0,0,.52-.1C30.81,5.59,31.38,5,32,4.44a2.29,2.29,0,0,1,3.38,0q1.52,1.5,3,3a2.25,2.25,0,0,1,0,3.33l-1,1-1,1c.23.51.47,1,.68,1.49s.38,1,.57,1.51h2.71a2.25,2.25,0,0,1,2.41,2.39c0,1.49,0,3,0,4.45a2.17,2.17,0,0,1-2.22,2.14V23.29c.62-.26.72-.41.72-1.09V18.31c0-.81-.25-1-1.07-1-1.11,0-2.21,0-3.32,0-.29,0-.44,0-.52-.37a13.86,13.86,0,0,0-1.89-4.38l1.77-1.73c.36-.36.73-.72,1.08-1.1a.74.74,0,0,0,0-1.12Q35.77,7,34.22,5.48a.75.75,0,0,0-1.16,0c-.85.84-1.7,1.69-2.54,2.55-.18.18-.32.25-.56.1a14,14,0,0,0-4.45-1.81v-.5c0-1.12,0-2.24,0-3.37,0-.64-.27-.94-.89-.94-1.4,0-2.81,0-4.21,0-.61,0-.89.29-.89.9,0,1.12,0,2.25,0,3.37Z"/><path class="cls-1" d="M33,20.24H31.52a9,9,0,0,0-3.84-7.33,8.7,8.7,0,0,0-5.45-1.63,9.06,9.06,0,0,0-8.75,9H12a10.31,10.31,0,0,1,4.2-8.36,10.43,10.43,0,0,1,11.61-.68A10.27,10.27,0,0,1,33,20.24Z"/><path class="cls-1" d="M22.48,26.25A4.48,4.48,0,0,1,18,21.6a4.5,4.5,0,1,1,4.46,4.65Zm0-1.51a3,3,0,1,0-3-3A3,3,0,0,0,22.48,24.74Z"/><path class="cls-1" d="M9.73,29.24a4.46,4.46,0,0,1-4.45-4.65,4.5,4.5,0,1,1,4.45,4.65Zm0-1.51a3,3,0,1,0-3-3A3,3,0,0,0,9.76,27.73Z"/><path class="cls-1" d="M35.25,29.24a4.5,4.5,0,1,1,4.5-4.46A4.47,4.47,0,0,1,35.25,29.24Zm0-1.51a3,3,0,1,0-3-3A3,3,0,0,0,35.29,27.73Z"/><path class="cls-1" d="M19.54,45V43.5h5.94V45Z"/></g></g></svg>