<svg xmlns="http://www.w3.org/2000/svg" viewBox="0 0 45 45"><defs><style>.cls-1{fill:#fff;}</style></defs><g id="Camada_2" data-name="Camada 2"><g id="Camada_1-2" data-name="Camada 1"><path class="cls-1" d="M0,20.84c.09-.59.17-1.18.26-1.77A22,22,0,0,1,7.17,6,21.6,21.6,0,0,1,18.76.31,22.22,22.22,0,0,1,36.22,4.65a.89.89,0,1,1-1.09,1.4A20.74,20.74,0,0,0,8.31,37.62c.12.12.26.23.4.35a14.11,14.11,0,0,1,27.57,0,3.43,3.43,0,0,0,.33-.27A20.28,20.28,0,0,0,43,25.57,20.61,20.61,0,0,0,40.41,12a1.66,1.66,0,0,1-.26-.85.78.78,0,0,1,.74-.74.89.89,0,0,1,.94.51,20.53,20.53,0,0,1,2.47,5.92c2.06,9.14-.41,16.86-7.49,23a21.05,21.05,0,0,1-11.51,5L24.09,45H20.93c-.52-.07-1.05-.12-1.57-.2A22.07,22.07,0,0,1,8.44,40.06,22.1,22.1,0,0,1,.26,25.94C.17,25.35.09,24.76,0,24.17ZM22.47,43.26l1.4-.09a20.48,20.48,0,0,0,10.26-3.48.9.9,0,0,0,.46-1.1,12.31,12.31,0,0,0-24.2.23.64.64,0,0,0,.29.73A21,21,0,0,0,22.47,43.26Z"/><path class="cls-1" d="M22.5,25.14a7.91,7.91,0,1,1,7.92-7.87A7.88,7.88,0,0,1,22.5,25.14Zm0-1.76a6.15,6.15,0,1,0-6.18-6.13A6.18,6.18,0,0,0,22.53,23.38Z"/><path class="cls-1" d="M38.68,9a.88.88,0,1,1,.88-.88A.85.85,0,0,1,38.68,9Z"/></g></g></svg>