<svg xmlns="http://www.w3.org/2000/svg" viewBox="0 0 45 43.53"><defs><style>.cls-1{fill:#fff;}</style></defs><g id="Camada_2" data-name="Camada 2"><g id="Camada_1-2" data-name="Camada 1"><path class="cls-1" d="M45,41a4.19,4.19,0,0,1-2.72,1.66,24.07,24.07,0,0,1-5.59.78c-1.9.06-3.81.07-5.71,0a22.42,22.42,0,0,1-6.08-.95,6.58,6.58,0,0,1-.78-.29c-1-.43-1.64-1-1.44-2.22a3.38,3.38,0,0,0,0-.45c-.89.23-1.76.49-2.63.69a25.79,25.79,0,0,1-9.59.36A17,17,0,0,1,4.73,38.8,8.59,8.59,0,0,1,.32,33.74a8.49,8.49,0,0,1,.35-5.58,28.89,28.89,0,0,1,3.46-6.43c1.77-2.55,3.64-5,5.46-7.53l.27-.38A3,3,0,0,1,9.1,8.16L8.31,6.89c-.51-.8-1-1.6-1.51-2.42a1.91,1.91,0,0,1,.59-2.88A8,8,0,0,1,10.75.38a24.64,24.64,0,0,1,9,.07,7.5,7.5,0,0,1,2.93,1.1,1.89,1.89,0,0,1,1.05,1.84,3.06,3.06,0,0,1-.45,1.17c-.72,1.2-1.48,2.38-2.24,3.59a3,3,0,0,1-.73,5.67L22.08,16A11.41,11.41,0,0,1,30.7,8.65a11,11,0,0,1,8.76,1.85A11.5,11.5,0,0,1,40.94,28c.49.12,1,.21,1.41.35a13.69,13.69,0,0,1,1.51.56A2.26,2.26,0,0,1,45,30.05ZM25.21,28.38a.48.48,0,0,0-.06-.11L25,28.12A11.3,11.3,0,0,1,21.6,18.05a.68.68,0,0,0-.14-.51c-.92-1.17-1.86-2.34-2.81-3.48a.72.72,0,0,0-.51-.24c-2,0-4.07,0-6.11,0a.84.84,0,0,0-.57.28c-1.91,2.55-3.84,5.09-5.69,7.7A29.89,29.89,0,0,0,2,28.65a6.83,6.83,0,0,0,.07,5.65,7.73,7.73,0,0,0,3.77,3.48,17.21,17.21,0,0,0,6.37,1.61,24.41,24.41,0,0,0,10-1.21.55.55,0,0,0,.46-.63c0-2.26,0-4.51,0-6.77A1.78,1.78,0,0,1,23.78,29C24.24,28.75,24.72,28.58,25.21,28.38ZM15.06,7.93c1.3,0,2.6,0,3.91,0a.77.77,0,0,0,.8-.43c.69-1.15,1.4-2.3,2.14-3.42.46-.7.57-1.09-.48-1.63A4.32,4.32,0,0,0,21,2.27a14.12,14.12,0,0,0-4-.78,24.2,24.2,0,0,0-5.38.18,8.41,8.41,0,0,0-3.21,1c-.57.35-.64.68-.29,1.23.78,1.25,1.57,2.5,2.34,3.76a.6.6,0,0,0,.6.32Zm27.84,12a10,10,0,1,0-10.08,10A10,10,0,0,0,42.9,19.9ZM24.09,38.83a12.61,12.61,0,0,1,0,1.38.67.67,0,0,0,.58.82l.33.11a26.47,26.47,0,0,0,6.05.94,41.76,41.76,0,0,0,9.41-.43c.93-.17,1.84-.44,2.75-.7.15,0,.37-.22.38-.35,0-.58,0-1.16,0-1.76a28.55,28.55,0,0,1-9.73,1.29A28.6,28.6,0,0,1,24.09,38.83Zm0-3.32v1c0,.88,0,.88.85,1.14l.09,0c1.64.29,3.26.69,4.91.84a41,41,0,0,0,10.5-.33,26.37,26.37,0,0,0,2.75-.7c.16-.05.38-.25.39-.39,0-.56,0-1.13,0-1.62A39.53,39.53,0,0,1,24.09,35.51Zm0-3.44v1.2c0,.69,0,.71.67.92a22.42,22.42,0,0,0,5.38,1,43,43,0,0,0,10.2-.35c1-.16,1.9-.45,2.84-.7.16,0,.39-.22.39-.34,0-.59,0-1.18,0-1.67A39.85,39.85,0,0,1,24.09,32.07Zm-9-19.67h4.61a2.53,2.53,0,0,0,.61-.06,1.52,1.52,0,0,0-.5-3H10.34a1.72,1.72,0,0,0-.6.1,1.5,1.5,0,0,0,.49,2.92Zm9,18a2,2,0,0,0,.28.18,5.89,5.89,0,0,0,.7.26,25.9,25.9,0,0,0,6.89.94c2.12,0,4.24,0,6.35-.18a42.78,42.78,0,0,0,4.6-.86,3.33,3.33,0,0,0,.77-.35,3.76,3.76,0,0,0-.53-.25L40,29.35a1,1,0,0,0-.83.08A11.32,11.32,0,0,1,27,29.68c-.11-.06-.24-.17-.35-.15A7.7,7.7,0,0,0,24.09,30.41Z"/><path class="cls-1" d="M16.06,32.12c0,.33,0,.64,0,.94,0,.55-.28.86-.73.86s-.69-.3-.7-.83c0-.31,0-.62,0-1-.16-.06-.31-.1-.45-.16A3.25,3.25,0,0,1,12,29.08c0-.57.21-.93.66-.95s.71.32.75.86a1.91,1.91,0,0,0,3.73.42,1.69,1.69,0,0,0-1.06-2.23c-.58-.2-1.18-.32-1.77-.49a2.76,2.76,0,0,1-2.32-3,3.25,3.25,0,0,1,2.16-3.23.57.57,0,0,0,.45-.7,2.73,2.73,0,0,1,0-.57.71.71,0,1,1,1.42,0,4.09,4.09,0,0,1,0,.7.42.42,0,0,0,.34.5,3.22,3.22,0,0,1,2.26,2.9c.05.57-.2.93-.65.95s-.71-.28-.76-.83a1.92,1.92,0,0,0-3.76-.36,1.67,1.67,0,0,0,1.08,2.15c.58.2,1.18.33,1.77.5a2.74,2.74,0,0,1,2.33,3A3.36,3.36,0,0,1,16.53,32Z"/><path class="cls-1" d="M41.75,19.88A8.87,8.87,0,1,1,32.89,11,8.85,8.85,0,0,1,41.75,19.88Zm-16.3,0a7.45,7.45,0,1,0,7.44-7.46A7.46,7.46,0,0,0,25.45,19.87Z"/><path class="cls-1" d="M32.09,25a7.16,7.16,0,0,1-1.42-1.12A4,4,0,0,1,30,22.41a.69.69,0,0,1,.53-.87.68.68,0,0,1,.83.59,1.55,1.55,0,0,0,1.17,1.37,1.47,1.47,0,0,0,1.74-1,1.29,1.29,0,0,0-.8-1.74c-.48-.18-1-.27-1.47-.42a2.41,2.41,0,0,1-2-2.45A2.88,2.88,0,0,1,31.73,15c.36-.15.51-.33.45-.7a1.37,1.37,0,0,1,0-.35.72.72,0,0,1,.69-.67.69.69,0,0,1,.72.67c0,.27,0,.55,0,.76a11.15,11.15,0,0,1,1.27.83,2.61,2.61,0,0,1,.91,2,.68.68,0,0,1-.65.77c-.43,0-.71-.24-.76-.73a1.48,1.48,0,0,0-1.24-1.43,1.52,1.52,0,0,0-1.65,1,1.29,1.29,0,0,0,.79,1.72c.47.18,1,.28,1.47.42a2.36,2.36,0,0,1,2,2.22A2.9,2.9,0,0,1,34,24.71a.6.6,0,0,0-.46.7c0,.68-.23,1-.69,1s-.72-.36-.72-1.05V24.9Z"/></g></g></svg>