<svg xmlns="http://www.w3.org/2000/svg" viewBox="0 0 45 42.42"><defs><style>.cls-1{fill:#fff;}</style></defs><g id="Camada_2" data-name="Camada 2"><g id="Camada_1-2" data-name="Camada 1"><path class="cls-1" d="M20.44,42.42C11.48,42.34,3.24,36,.7,26.54A21.24,21.24,0,0,1,16.48.55,20.82,20.82,0,0,1,33.69,4.08a2.79,2.79,0,0,1,.43.34.91.91,0,0,1,.1,1.26A.9.9,0,0,1,33,6c-.42-.24-.8-.55-1.2-.82a19.22,19.22,0,1,0-14,35,18.69,18.69,0,0,0,14.67-3.35,4.39,4.39,0,0,1,.5-.34.91.91,0,0,1,1.23.31A.86.86,0,0,1,34.1,38a11.49,11.49,0,0,1-1.32,1A21.6,21.6,0,0,1,20.44,42.42Z"/><path class="cls-1" d="M42,22.18H21.61c-.78,0-1.19-.34-1.19-1a.93.93,0,0,1,.89-1H42l-2.49-3.16c-1.29-1.61-2.59-3.22-3.84-4.86a1.55,1.55,0,0,1-.31-1.09,1,1,0,0,1,.73-.66,1.38,1.38,0,0,1,1,.46c1.4,1.68,2.74,3.4,4.1,5.12q1.74,2.18,3.47,4.37a1,1,0,0,1,0,1.57q-3.75,4.74-7.51,9.47c-.45.56-.89.68-1.36.42a.9.9,0,0,1-.47-1.13,1.89,1.89,0,0,1,.4-.66l5.82-7.33Z"/></g></g></svg>