<svg xmlns="http://www.w3.org/2000/svg" viewBox="0 0 45 45"><defs><style>.cls-1{fill:#fff;}</style></defs><g id="Camada_2" data-name="Camada 2"><g id="Camada_1-2" data-name="Camada 1"><path class="cls-1" d="M28.64,42.89l.33,0h5.89a2.18,2.18,0,0,0,.52-.06,3.06,3.06,0,0,0,2.46-3.15c0-5.32,0-10.63,0-16,0-.91.35-1.25,1.24-1.25s1.69,0,2.54,0a1.16,1.16,0,0,0,1.22-.73,1.14,1.14,0,0,0-.34-1.34Q33.91,11.85,25.32,3.27a3.88,3.88,0,0,0-5.65,0Q11.09,11.84,2.52,20.42a1.15,1.15,0,0,0-.36,1.33,1.14,1.14,0,0,0,1.21.74H5.72c1.18,0,1.45.26,1.45,1.42v4.84c0,3.65,0,7.31,0,11a3.06,3.06,0,0,0,3.2,3.19c1.85,0,3.7,0,5.55,0l.45,0V31.7a3,3,0,0,1,3.06-3.07h6.13a3,3,0,0,1,3.08,3.1V42.89ZM27.13,45a.55.55,0,0,1-.55-.55V32c0-1.1-.36-1.37-1.59-1.33q-2.49.09-5,0c-1.22-.05-1.58.23-1.58,1.35V44.45a.54.54,0,0,1-.55.55h-7.4A7,7,0,0,1,9,44.81a5.11,5.11,0,0,1-3.86-5.22c0-4.79,0-9.58,0-14.37v-.7c-.84,0-1.59.05-2.34,0A2.92,2.92,0,0,1,.24,22.46a3,3,0,0,1,.52-3.18c.11-.13.24-.25.36-.38L18.2,1.84a6,6,0,0,1,8.61,0Q35.39,10.4,44,19a3.19,3.19,0,0,1-1.38,5.48,5.37,5.37,0,0,1-1.14.1c-.49,0-1,0-1.53,0v.67q0,7.16,0,14.32A5.21,5.21,0,0,1,34.54,45Z"/></g></g></svg>