<svg xmlns="http://www.w3.org/2000/svg" viewBox="0 0 170.29 26.2"><defs><style>.cls-1{opacity:0.54;}.cls-2{fill:#0762c8;}.cls-3{fill:#fff;}</style></defs><g id="Camada_2" data-name="Camada 2"><g id="Camada_1-2" data-name="Camada 1"><path class="cls-1" d="M60.92,7.2a5.67,5.67,0,0,1,3.54,1.15c1,.75,1.51,2.09,1.51,4v11.1c0,.47-.43.71-1.29.71h-.13c-.85,0-1.28-.24-1.28-.71V12.64a3.11,3.11,0,0,0-.81-2.27,2.93,2.93,0,0,0-2.28-.84,5.29,5.29,0,0,0-4,2.24,5.25,5.25,0,0,1,0,.64V23.48c0,.47-.43.71-1.29.71h-.12c-.86,0-1.29-.24-1.29-.71V12.64a3.14,3.14,0,0,0-.8-2.27,3,3,0,0,0-2.29-.84,3.84,3.84,0,0,0-1.92.52,6.45,6.45,0,0,0-1.45,1,3.62,3.62,0,0,0-.55.64V23.48c0,.47-.43.71-1.28.71h-.13c-.86,0-1.29-.24-1.29-.71V12.25a16,16,0,0,0-.19-3c-.13-.62-.19-1-.19-1,0-.25.2-.43.61-.54a3.65,3.65,0,0,1,1.12-.19.65.65,0,0,1,.64.48,3.89,3.89,0,0,1,.33,1c.08.34.14.56.16.67a7.81,7.81,0,0,1,2.15-1.7,5.6,5.6,0,0,1,2.73-.7,6,6,0,0,1,2.7.61,3.64,3.64,0,0,1,1.9,2A8.71,8.71,0,0,1,58.12,8,5.63,5.63,0,0,1,60.92,7.2ZM79.56,21.92c0,.1.06.34.12.7A9.32,9.32,0,0,0,80,23.68a.71.71,0,0,0,.67.48A4.87,4.87,0,0,0,81.81,24c.4-.13.61-.32.61-.58,0-.06-.07-.39-.2-1a16.67,16.67,0,0,1-.19-3V12.22a4.43,4.43,0,0,0-1.67-3.68A7.3,7.3,0,0,0,75.7,7.2a12.37,12.37,0,0,0-2.93.35,8.69,8.69,0,0,0-2.28.8q-.84.48-.84.9a2.19,2.19,0,0,0,.39,1c.28.42.52.64.74.64a6.55,6.55,0,0,0,.77-.32,11.38,11.38,0,0,1,1.77-.68,8,8,0,0,1,2.47-.35,3.91,3.91,0,0,1,2.7.77,2.43,2.43,0,0,1,.84,1.92v1.5a34.85,34.85,0,0,0-5.4.42,7.62,7.62,0,0,0-3.76,1.63,4.61,4.61,0,0,0-1.51,3.78,4.31,4.31,0,0,0,1.51,3.58,6.16,6.16,0,0,0,4,1.22A7,7,0,0,0,79.56,21.92Zm-7.33-.61a2.64,2.64,0,0,1-.68-1.95,2.5,2.5,0,0,1,1.16-2.27,6,6,0,0,1,2.67-.9c1-.11,2.34-.17,4-.19v3.77A10.51,10.51,0,0,1,77,21.4a5.79,5.79,0,0,1-2.7.58A2.85,2.85,0,0,1,72.23,21.31ZM89.07,3.65V1.86c0-.52-.47-.77-1.42-.77s-1.54.25-1.54.77V3.65c0,.51.47.77,1.41.77S89.07,4.16,89.07,3.65ZM87.65,24.19c.86,0,1.29-.24,1.29-.71V8c0-.47-.43-.7-1.29-.7h-.13c-.85,0-1.28.23-1.28.7V23.48c0,.47.43.71,1.28.71Zm12-.42A5.23,5.23,0,0,0,101.69,22a4.53,4.53,0,0,0,.77-2.56,5,5,0,0,0-.48-2.37,3.6,3.6,0,0,0-1.54-1.53,14.38,14.38,0,0,0-3.12-1.28,4.23,4.23,0,0,1-1.93-1.06,2.45,2.45,0,0,1-.58-1.73,1.72,1.72,0,0,1,.8-1.47,3.74,3.74,0,0,1,2.06-.54,4.32,4.32,0,0,1,2.06.41q.76.39.87.42c.19,0,.4-.21.64-.64a2.36,2.36,0,0,0,.39-1.09q0-.54-1.32-1a9.74,9.74,0,0,0-2.93-.41,6.15,6.15,0,0,0-2.76.6,4.67,4.67,0,0,0-1.9,1.64,4.34,4.34,0,0,0-.67,2.4,4.4,4.4,0,0,0,1,3,7.39,7.39,0,0,0,3.5,1.83A6.47,6.47,0,0,1,99,17.76a2.21,2.21,0,0,1,.71,1.73c0,1.72-1,2.59-3.15,2.59a5.57,5.57,0,0,1-1.83-.29,6.56,6.56,0,0,1-1.35-.64,3.06,3.06,0,0,0-.61-.35c-.22,0-.47.21-.74.64a2.1,2.1,0,0,0-.39,1c0,.25.23.54.68.86a6.75,6.75,0,0,0,1.86.83,9.57,9.57,0,0,0,2.57.32A6.26,6.26,0,0,0,99.63,23.77Z"/><path class="cls-2" d="M114.45,24.38q-4.11,0-6.11-2.08t-2-6.43q0-4.35,2-6.53t6.27-2.21a10.63,10.63,0,0,1,3.63.61c1.14.39,1.71.92,1.71,1.6a3.17,3.17,0,0,1-.68,1.47c-.43.67-.77,1-1,1a2,2,0,0,1-.57-.23,8.63,8.63,0,0,0-1.29-.51,5,5,0,0,0-1.51-.19,3.2,3.2,0,0,0-2.77,1.18,6.34,6.34,0,0,0-.86,3.68,6.77,6.77,0,0,0,.8,3.71,3,3,0,0,0,2.64,1.19,6.42,6.42,0,0,0,1.47-.16c.45-.13.82-.25,1.1-.35l.58-.23a3.54,3.54,0,0,1,.57-.19c.22,0,.45.16.71.48a3.58,3.58,0,0,1,.68,1,2.32,2.32,0,0,1,.29.9c0,.53-.37,1-1.1,1.31a8.19,8.19,0,0,1-2.41.71A13.64,13.64,0,0,1,114.45,24.38Zm20.14-2.21a9.39,9.39,0,0,0,2-6.43c0-2.79-.67-4.93-2-6.4a7.35,7.35,0,0,0-5.79-2.21A7.45,7.45,0,0,0,123,9.34c-1.33,1.47-2,3.61-2,6.4s.66,4.94,2,6.43a7.45,7.45,0,0,0,5.82,2.21A7.35,7.35,0,0,0,134.59,22.17Zm-8.78-6.43a7.19,7.19,0,0,1,.74-3.65,2.45,2.45,0,0,1,2.25-1.21A2.38,2.38,0,0,1,131,12.09a7.19,7.19,0,0,1,.74,3.65,7.37,7.37,0,0,1-.74,3.68,2.39,2.39,0,0,1-2.22,1.22Q125.82,20.64,125.81,15.74Zm21.1,8A4.49,4.49,0,0,0,148.64,22c0,.13.07.37.13.74a5.86,5.86,0,0,0,.36,1,.81.81,0,0,0,.8.45,12,12,0,0,0,2.28-.26c.88-.17,1.32-.43,1.32-.77a2.92,2.92,0,0,0-.1-.7c-.08-.62-.16-1.19-.22-1.7s-.07-1.26-.07-2.24V1q0-1-1.92-1h-.9c-1.29,0-1.93.34-1.93,1V8.13a5.5,5.5,0,0,0-3.28-1,6,6,0,0,0-5,2.34,10.06,10.06,0,0,0-1.77,6.27,12.58,12.58,0,0,0,.78,4.67,6.69,6.69,0,0,0,2.12,3,5.22,5.22,0,0,0,3.12,1A4.9,4.9,0,0,0,146.91,23.71Zm-3.76-8c0-3.24,1-4.86,3-4.86a4.53,4.53,0,0,1,2.25.61v7.13a3.12,3.12,0,0,1-2.64,1.89C144,20.51,143.15,18.92,143.15,15.74Zm23.19,8.38a8.76,8.76,0,0,0,2.38-.76c.66-.37,1-.79,1-1.28a2.08,2.08,0,0,0-.29-.9,3.43,3.43,0,0,0-.67-1.05c-.26-.32-.49-.48-.71-.48a2,2,0,0,0-.71.25c-.53.21-1.05.4-1.54.55a6.9,6.9,0,0,1-1.64.19,4,4,0,0,1-2.6-.77,3.6,3.6,0,0,1-1.09-2.59h8.19c.22,0,.54-.25,1-.74a2.16,2.16,0,0,0,.67-1.15,9.78,9.78,0,0,0-1.7-6,6,6,0,0,0-5.24-2.31,7.75,7.75,0,0,0-5.76,2.12q-2.06,2.1-2.05,6.62a9,9,0,0,0,2.05,6.27q2.1,2.23,6.34,2.24A12.73,12.73,0,0,0,166.34,24.12Zm-5.88-10q.51-3.22,2.89-3.23a1.93,1.93,0,0,1,1.73.89,4.14,4.14,0,0,1,.58,2.34Z"/><path class="cls-2" d="M0,11.53A6.11,6.11,0,0,1,6.05,5.36H30.27a6.11,6.11,0,0,1,6.05,6.17V20a6.12,6.12,0,0,1-6.05,6.18H6.05A6.12,6.12,0,0,1,0,20Z"/><path class="cls-3" d="M20.53,21.9a.23.23,0,0,0,.16.29l1,.3a.24.24,0,0,0,.3-.16L25.63,9.66a.23.23,0,0,0-.16-.29l-1-.3a.23.23,0,0,0-.3.16Zm-6.15-6.51V11.77a.24.24,0,0,1,.24-.24h1a.24.24,0,0,1,.24.24v3.62h3.55a.23.23,0,0,1,.23.24V16.7a.23.23,0,0,1-.23.24H15.89v3.62a.24.24,0,0,1-.24.24h-1a.24.24,0,0,1-.24-.24V16.94H10.83a.24.24,0,0,1-.24-.24V15.63a.24.24,0,0,1,.24-.24ZM8.72,11.93a.25.25,0,0,0-.34,0L4.39,16a.24.24,0,0,0,0,.33l4,4.07a.25.25,0,0,0,.34,0l.73-.76a.24.24,0,0,0,0-.33L6.37,16.16,9.45,13a.25.25,0,0,0,0-.34Zm18.89,0a.25.25,0,0,1,.34,0l4,4.07a.24.24,0,0,1,0,.33L28,20.4a.25.25,0,0,1-.34,0l-.74-.76a.24.24,0,0,1,0-.33L30,16.16,26.87,13a.25.25,0,0,1,0-.34Z"/></g></g></svg>